<svg width="55" height="56" viewBox="0 0 55 56" fill="none" xmlns="http://www.w3.org/2000/svg">
<rect y="0.5" width="55" height="55" rx="27.5" fill="#005EA3"/>
<path d="M22.0838 23.312C22.0838 20.4401 24.5137 18.1036 27.5005 18.1036C30.4872 18.1036 32.9172 20.4401 32.9172 23.312C32.9172 26.1838 30.4872 28.5203 27.5005 28.5203C24.5137 28.5203 22.0838 26.1838 22.0838 23.312ZM31.9606 29.636C31.355 29.4881 30.6963 29.5714 30.1514 29.8631C28.5069 30.7422 26.494 30.7422 24.8495 29.8631C24.3057 29.5725 23.646 29.4901 23.0404 29.636C20.8824 30.1599 19.3755 32.0433 19.3755 34.2151V35.2682C19.3755 35.9328 19.5596 36.5827 19.9096 37.1494C20.1945 37.6098 20.7286 37.8963 21.3017 37.8963H33.6982C34.2713 37.8963 34.8054 37.6109 35.0903 37.1484C35.4402 36.5828 35.6244 35.9328 35.6244 35.2682V34.2151C35.6255 32.0433 34.1186 30.1599 31.9606 29.636Z" fill="white"/>
</svg>
